<?xml version="1.0" encoding="UTF-8" standalone="no"?>
<!DOCTYPE svg PUBLIC "-//W3C//DTD SVG 1.1//EN" "http://www.w3.org/Graphics/SVG/1.1/DTD/svg11.dtd">
<svg version="1.1" xmlns="http://www.w3.org/2000/svg" xmlns:xlink="http://www.w3.org/1999/xlink" preserveAspectRatio="xMidYMid meet" viewBox="0 0 640 640" width="640" height="640"><defs><path d="M486.67 593.33C486.67 604.38 412.05 613.33 320 613.33C227.95 613.33 153.33 604.38 153.33 593.33C153.33 582.29 227.95 573.33 320 573.33C412.05 573.33 486.67 582.29 486.67 593.33Z" id="ekfUMZeB3"></path><path d="M125.47 261.2C125.47 261.24 125.47 261.29 125.47 261.33C125.47 268.12 125.47 302.08 125.47 363.2L514.53 363.2C514.53 302.08 514.53 268.12 514.53 261.33C514.61 153.9 427.57 66.74 320.13 66.67C320.09 66.67 320.04 66.67 320 66.67C212.56 66.67 125.47 153.76 125.47 261.2Z" id="a6jNKJ0BI9"></path><path d="M507.73 317.73C506.57 317.41 497.29 314.85 496.13 314.53C478.56 309.74 466.45 293.68 466.67 275.47C466.67 271.37 466.67 238.63 466.67 234.53C466.65 217.69 455.24 203 438.93 198.8C401.11 213.77 360.68 221.07 320 220.27C279.41 221.04 239.08 213.74 201.33 198.8C184.92 202.89 173.38 217.62 173.33 234.53C173.33 238.63 173.33 271.37 173.33 275.47C173.52 293.76 161.28 309.84 143.6 314.53C142.44 314.85 133.16 317.41 132 317.73C117.34 321.25 106.36 333.45 104.4 348.4C102.71 368.14 117.33 385.51 137.07 387.2C138.09 387.29 139.11 387.33 140.13 387.33C140.36 387.33 142.17 387.33 142.4 387.33C157.15 485.27 248.5 552.71 346.44 537.96C424.26 526.24 485.35 465.15 497.07 387.33C497.29 387.33 499.11 387.33 499.33 387.33C519.14 387.48 535.32 371.54 535.46 351.73C535.47 350.62 535.43 349.51 535.33 348.4C533.37 333.45 522.4 321.25 507.73 317.73Z" id="bc6KeXWGK"></path><path d="M227.73 359.47C236.2 359.47 243.07 352.6 243.07 344.13C243.07 335.66 236.2 328.8 227.73 328.8C227.69 328.8 227.64 328.8 227.6 328.8C219.18 328.87 212.4 335.72 212.4 344.13C212.4 352.6 219.27 359.47 227.73 359.47Z" id="fhq5mXMps"></path><path d="M412.27 359.47C403.8 359.47 396.93 352.6 396.93 344.13C396.93 335.66 403.8 328.8 412.27 328.8C412.31 328.8 412.36 328.8 412.4 328.8C420.82 328.87 427.6 335.72 427.6 344.13C427.6 352.6 420.73 359.47 412.27 359.47Z" id="a9Iik4f8"></path><path d="M270.8 441.2C268.56 441.24 266.44 442.21 264.93 443.87C263.45 445.59 262.81 447.89 263.2 450.13C268.48 481.5 298.2 502.65 329.57 497.37C353.77 493.29 372.72 474.33 376.8 450.13C377.19 447.89 376.55 445.59 375.07 443.87C373.56 442.21 371.44 441.24 369.2 441.2C349.52 441.2 290.48 441.2 270.8 441.2Z" id="e3hSnX3hND"></path><path d="M276.13 478.27C297.43 502.49 334.33 504.87 358.55 483.58C360.44 481.93 362.21 480.15 363.87 478.27C351.13 469.07 335.7 464.38 320 464.93C304.3 464.38 288.87 469.07 276.13 478.27Z" id="hdPRDWYum"></path><path d="M270.8 441.2C268.56 441.24 266.44 442.21 264.93 443.87C263.45 445.59 262.81 447.89 263.2 450.13C268.48 481.5 298.2 502.65 329.57 497.37C353.77 493.29 372.72 474.33 376.8 450.13C377.19 447.89 376.55 445.59 375.07 443.87C373.56 442.21 371.44 441.24 369.2 441.2C349.52 441.2 290.48 441.2 270.8 441.2Z" id="a1v1pkwGgk"></path><path d="M222.27 409.2C222.27 415.75 213.37 421.07 202.4 421.07C191.43 421.07 182.53 415.75 182.53 409.2C182.53 402.65 191.43 397.33 202.4 397.33C213.37 397.33 222.27 402.65 222.27 409.2Z" id="b2oJ8tjxM"></path><path d="M457.47 409.2C457.47 415.75 448.57 421.07 437.6 421.07C426.63 421.07 417.73 415.75 417.73 409.2C417.73 402.65 426.63 397.33 437.6 397.33C448.57 397.33 457.47 402.65 457.47 409.2Z" id="a1qyIPi1aO"></path><path d="M320 289.87C176.4 289.87 60 248.8 60 203.6C60 158.4 176.4 141.07 320 141.07C463.6 141.07 580 158.4 580 203.6C580 248.8 463.6 289.87 320 289.87Z" id="i7ge0A4Kcp"></path><path d="M571.47 224.4C576.57 218.62 579.58 211.3 580 203.6C580 158.4 463.6 141.07 320 141.07C176.4 141.07 60 158.4 60 203.6C60.42 211.3 63.43 218.62 68.53 224.4C97.47 193.47 198.93 181.07 320 181.07C441.07 181.07 542.53 193.47 571.47 224.4Z" id="h5REehx5x"></path><path d="M320 289.87C176.4 289.87 60 248.8 60 203.6C60 158.4 176.4 141.07 320 141.07C463.6 141.07 580 158.4 580 203.6C580 248.8 463.6 289.87 320 289.87Z" id="d18CeVoWNB"></path><path d="M411.07 48.13C395.64 40.22 377.24 40.72 362.27 49.47C335.95 61.99 305.39 61.99 279.07 49.47C264.09 40.72 245.69 40.22 230.27 48.13C157.73 91.47 150.27 200 150.27 200C150.27 200 196.67 240 320 240C443.33 240 491.07 200 491.07 200C475.07 169.63 482.93 91.47 411.07 48.13Z" id="c1sejyfhyw"></path><path d="M278.4 87.07C304.72 99.59 335.28 99.59 361.6 87.07C376.57 78.29 395.01 77.84 410.4 85.87C457.07 113.73 477.07 168.27 485.33 203.87C487.33 202.67 489.25 201.33 491.07 199.87C491.07 199.87 482.93 91.33 411.07 48C395.64 40.09 377.24 40.59 362.27 49.33C335.95 61.86 305.39 61.86 279.07 49.33C264.09 40.59 245.69 40.09 230.27 48C157.73 91.33 150.27 199.87 150.27 199.87C152.08 201.33 154 202.67 156 203.87C163.07 168.27 182.93 113.73 229.6 85.87C244.99 77.84 263.43 78.29 278.4 87.07Z" id="c1TqH9dssB"></path><path d="M410.4 48.13C394.97 40.22 376.57 40.72 361.6 49.47C335.28 61.99 304.72 61.99 278.4 49.47C263.43 40.72 245.03 40.22 229.6 48.13C157.07 91.47 149.6 200 149.6 200C149.6 200 196 240 319.33 240C442.67 240 490.4 200 490.4 200C474.4 169.63 482.27 91.47 410.4 48.13Z" id="j1CWKIwxDC"></path><path d="M158.13 152.93C153.58 168.29 150.5 184.05 148.93 200C148.93 200 196.67 240 320 240C443.33 240 491.07 200 491.07 200C489.49 184.1 486.41 168.38 481.87 153.07C430.22 172.86 375.3 182.67 320 182C264.69 182.7 209.75 172.83 158.13 152.93Z" id="d2QklnAYad"></path><path d="M467.54 402.12C467.54 402.12 467.54 402.12 467.54 402.12C485.58 425.19 495.6 438 497.61 440.56C497.61 440.56 497.61 440.56 497.61 440.56C485.57 449.97 478.89 455.2 477.55 456.25C477.55 456.25 477.55 456.25 477.55 456.25C459.51 433.19 449.49 420.37 447.49 417.81C447.49 417.81 447.49 417.81 447.49 417.81C459.52 408.4 466.21 403.17 467.54 402.12Z" id="b27J4PoXxv"></path><path d="M488.11 437.27C494.13 432.56 499.49 433.21 504.2 439.23C526.58 467.84 539.01 483.74 541.5 486.92C546.21 492.94 545.55 498.3 539.53 503.01C532.66 508.38 528.84 511.37 528.08 511.97C522.06 516.68 516.69 516.02 511.99 510C489.61 481.39 477.18 465.5 474.69 462.32C469.98 456.3 470.64 450.93 476.66 446.22C483.53 440.85 487.34 437.86 488.11 437.27Z" id="a3eqJtxtkq"></path><path d="M504.13 440C500.32 435.04 493.21 434.1 488.24 437.92C488.21 437.94 488.17 437.97 488.13 438C486.99 438.89 477.81 446.04 476.67 446.93C475.23 448.09 474.12 449.61 473.47 451.33C478.4 447.52 485.5 448.41 489.33 453.33C493.07 458.09 522.93 496.17 526.67 500.93C529.23 504.31 529.69 508.84 527.87 512.67C527.87 512.67 527.87 512.67 527.87 512.67C534.75 507.31 538.57 504.33 539.33 503.73C544.52 499.98 545.69 492.73 541.93 487.54C541.78 487.33 541.63 487.13 541.47 486.93C534 477.55 507.87 444.69 504.13 440Z" id="cY9Z90poV"></path><path d="M488.11 437.27C494.13 432.56 499.49 433.21 504.2 439.23C526.58 467.84 539.01 483.74 541.5 486.92C546.21 492.94 545.55 498.3 539.53 503.01C532.66 508.38 528.84 511.37 528.08 511.97C522.06 516.68 516.69 516.02 511.99 510C489.61 481.39 477.18 465.5 474.69 462.32C469.98 456.3 470.64 450.93 476.66 446.22C483.53 440.85 487.34 437.86 488.11 437.27Z" id="aPMXXEjFB"></path><path d="M408.4 260.4C360.46 260.4 321.6 299.26 321.6 347.2C321.6 395.14 360.46 434 408.4 434C456.34 434 495.2 395.14 495.2 347.2C495.2 299.26 456.34 260.4 408.4 260.4Z" id="c1jV5vG26b"></path><path d="M476.46 315.45C486.27 327.9 492.48 342.8 494.4 358.53C500.89 311.04 467.65 267.27 420.16 260.78C372.66 254.28 328.89 287.52 322.4 335.02C321.33 342.82 321.33 350.73 322.4 358.53C325.15 335.81 336.86 315.12 354.93 301.07C392.46 271.48 446.87 277.92 476.46 315.45Z" id="e8dulxfNs5"></path><path d="M408.4 260.4C360.46 260.4 321.6 299.26 321.6 347.2C321.6 395.14 360.46 434 408.4 434C456.34 434 495.2 395.14 495.2 347.2C495.2 299.26 456.34 260.4 408.4 260.4Z" id="b12DRdwwoz"></path><path d="M408.4 285.73C374.45 285.73 346.93 313.25 346.93 347.2C346.93 381.15 374.45 408.67 408.4 408.67C442.35 408.67 469.87 381.15 469.87 347.2C469.87 313.25 442.35 285.73 408.4 285.73Z" id="acbAJ9usJ"></path><path d="M451.87 303.73C427.83 279.76 388.91 279.81 364.94 303.84C343.04 325.8 340.92 360.62 360 385.07C361.53 387.07 363.18 388.98 364.93 390.8C382.32 373.39 443.17 312.44 451.87 303.73Z" id="fbRexSy44"></path><path d="M408.4 285.73C374.45 285.73 346.93 313.25 346.93 347.2C346.93 381.15 374.45 408.67 408.4 408.67C442.35 408.67 469.87 381.15 469.87 347.2C469.87 313.25 442.35 285.73 408.4 285.73Z" id="bIq29tXtS"></path></defs><g><g><g><use xlink:href="#ekfUMZeB3" opacity="1" fill="#45413c" fill-opacity="1"></use><g><use xlink:href="#ekfUMZeB3" opacity="1" fill-opacity="0" stroke="#000000" stroke-width="1" stroke-opacity="0"></use></g></g><g><use xlink:href="#a6jNKJ0BI9" opacity="1" fill="#1b0d05" fill-opacity="1"></use><g><use xlink:href="#a6jNKJ0BI9" opacity="1" fill-opacity="0" stroke="#45413c" stroke-width="1" stroke-opacity="1"></use></g></g><g><use xlink:href="#bc6KeXWGK" opacity="1" fill="#b0654f" fill-opacity="1"></use><g><use xlink:href="#bc6KeXWGK" opacity="1" fill-opacity="0" stroke="#45413c" stroke-width="1" stroke-opacity="1"></use></g></g><g><use xlink:href="#fhq5mXMps" opacity="1" fill="#000000" fill-opacity="1"></use><g><use xlink:href="#fhq5mXMps" opacity="1" fill-opacity="0" stroke="#45413c" stroke-width="1" stroke-opacity="1"></use></g></g><g><use xlink:href="#a9Iik4f8" opacity="1" fill="#45413c" fill-opacity="1"></use><g><use xlink:href="#a9Iik4f8" opacity="1" fill-opacity="0" stroke="#45413c" stroke-width="1" stroke-opacity="1"></use></g></g><g><use xlink:href="#e3hSnX3hND" opacity="1" fill="#ff6242" fill-opacity="1"></use><g><use xlink:href="#e3hSnX3hND" opacity="1" fill-opacity="0" stroke="#000000" stroke-width="1" stroke-opacity="0"></use></g></g><g><use xlink:href="#hdPRDWYum" opacity="1" fill="#ffa694" fill-opacity="1"></use><g><use xlink:href="#hdPRDWYum" opacity="1" fill-opacity="0" stroke="#000000" stroke-width="1" stroke-opacity="0"></use></g></g><g><use xlink:href="#a1v1pkwGgk" opacity="1" fill="#000000" fill-opacity="0"></use><g><use xlink:href="#a1v1pkwGgk" opacity="1" fill-opacity="0" stroke="#45413c" stroke-width="1" stroke-opacity="1"></use></g></g><g><use xlink:href="#b2oJ8tjxM" opacity="1" fill="#99503a" fill-opacity="1"></use><g><use xlink:href="#b2oJ8tjxM" opacity="1" fill-opacity="0" stroke="#000000" stroke-width="1" stroke-opacity="0"></use></g></g><g><use xlink:href="#a1qyIPi1aO" opacity="1" fill="#ffb59e" fill-opacity="1"></use><g><use xlink:href="#a1qyIPi1aO" opacity="1" fill-opacity="0" stroke="#000000" stroke-width="1" stroke-opacity="0"></use></g></g><g><use xlink:href="#i7ge0A4Kcp" opacity="1" fill="#b89558" fill-opacity="1"></use><g><use xlink:href="#i7ge0A4Kcp" opacity="1" fill-opacity="0" stroke="#000000" stroke-width="1" stroke-opacity="0"></use></g></g><g><use xlink:href="#h5REehx5x" opacity="1" fill="#debb7e" fill-opacity="1"></use><g><use xlink:href="#h5REehx5x" opacity="1" fill-opacity="0" stroke="#000000" stroke-width="1" stroke-opacity="0"></use></g></g><g><use xlink:href="#d18CeVoWNB" opacity="1" fill="#5d2a2a" fill-opacity="0"></use><g><use xlink:href="#d18CeVoWNB" opacity="1" fill-opacity="0" stroke="#45413c" stroke-width="1" stroke-opacity="1"></use></g></g><g><use xlink:href="#c1sejyfhyw" opacity="1" fill="#b89558" fill-opacity="1"></use><g><use xlink:href="#c1sejyfhyw" opacity="1" fill-opacity="0" stroke="#000000" stroke-width="1" stroke-opacity="0"></use></g></g><g><use xlink:href="#c1TqH9dssB" opacity="1" fill="#debb7e" fill-opacity="1"></use><g><use xlink:href="#c1TqH9dssB" opacity="1" fill-opacity="0" stroke="#000000" stroke-width="1" stroke-opacity="0"></use></g></g><g><use xlink:href="#j1CWKIwxDC" opacity="1" fill="#6c3636" fill-opacity="0"></use><g><use xlink:href="#j1CWKIwxDC" opacity="1" fill-opacity="0" stroke="#45413c" stroke-width="1" stroke-opacity="1"></use></g></g><g><use xlink:href="#d2QklnAYad" opacity="1" fill="#656769" fill-opacity="1"></use><g><use xlink:href="#d2QklnAYad" opacity="1" fill-opacity="0" stroke="#45413c" stroke-width="1" stroke-opacity="1"></use></g></g><g><use xlink:href="#b27J4PoXxv" opacity="1" fill="#daedf7" fill-opacity="1"></use><g><use xlink:href="#b27J4PoXxv" opacity="1" fill-opacity="0" stroke="#45413c" stroke-width="1" stroke-opacity="1"></use></g></g><g><use xlink:href="#a3eqJtxtkq" opacity="1" fill="#debb7e" fill-opacity="1"></use><g><use xlink:href="#a3eqJtxtkq" opacity="1" fill-opacity="0" stroke="#000000" stroke-width="1" stroke-opacity="0"></use></g></g><g><use xlink:href="#cY9Z90poV" opacity="1" fill="#f0d5a8" fill-opacity="1"></use><g><use xlink:href="#cY9Z90poV" opacity="1" fill-opacity="0" stroke="#000000" stroke-width="1" stroke-opacity="0"></use></g></g><g><use xlink:href="#aPMXXEjFB" opacity="1" fill="#000000" fill-opacity="0"></use><g><use xlink:href="#aPMXXEjFB" opacity="1" fill-opacity="0" stroke="#45413c" stroke-width="1" stroke-opacity="1"></use></g></g><g><use xlink:href="#c1jV5vG26b" opacity="1" fill="#daedf7" fill-opacity="1"></use><g><use xlink:href="#c1jV5vG26b" opacity="1" fill-opacity="0" stroke="#000000" stroke-width="1" stroke-opacity="0"></use></g></g><g><use xlink:href="#e8dulxfNs5" opacity="1" fill="#ffffff" fill-opacity="1"></use><g><use xlink:href="#e8dulxfNs5" opacity="1" fill-opacity="0" stroke="#000000" stroke-width="1" stroke-opacity="0"></use></g></g><g><use xlink:href="#b12DRdwwoz" opacity="1" fill="#000000" fill-opacity="0"></use><g><use xlink:href="#b12DRdwwoz" opacity="1" fill-opacity="0" stroke="#45413c" stroke-width="1" stroke-opacity="1"></use></g></g><g><use xlink:href="#acbAJ9usJ" opacity="1" fill="#00b8f0" fill-opacity="1"></use><g><use xlink:href="#acbAJ9usJ" opacity="1" fill-opacity="0" stroke="#000000" stroke-width="1" stroke-opacity="0"></use></g></g><g><use xlink:href="#fbRexSy44" opacity="1" fill="#4acfff" fill-opacity="1"></use><g><use xlink:href="#fbRexSy44" opacity="1" fill-opacity="0" stroke="#000000" stroke-width="1" stroke-opacity="0"></use></g></g><g><use xlink:href="#bIq29tXtS" opacity="1" fill="#000000" fill-opacity="0"></use><g><use xlink:href="#bIq29tXtS" opacity="1" fill-opacity="0" stroke="#45413c" stroke-width="1" stroke-opacity="1"></use></g></g></g></g></svg>